<?xml version="1.0" standalone="no"?>
<!DOCTYPE svg PUBLIC "-//W3C//DTD SVG 20010904//EN"
 "http://www.w3.org/TR/2001/REC-SVG-20010904/DTD/svg10.dtd">
<svg version="1.0" xmlns="http://www.w3.org/2000/svg"
 width="1638.000000pt" height="410.000000pt" viewBox="0 0 1638.000000 410.000000"
 preserveAspectRatio="xMidYMid meet">

<g transform="translate(0.000000,410.000000) scale(0.100000,-0.100000)"
fill="#05010c" stroke="none">
<path d="M0 3259 c0 -672 3 -839 13 -832 334 261 701 530 946 693 788 524
1491 771 2426 852 199 17 890 17 1095 0 589 -49 1096 -158 1535 -329 719 -279
1270 -664 1884 -1316 535 -567 1044 -963 1592 -1237 452 -227 937 -367 1474
-425 273 -29 415 -36 885 -42 786 -9 1127 14 1635 113 553 107 1176 350 1692
661 460 277 900 654 1145 981 l58 77 0 823 0 822 -8190 0 -8190 0 0 -841z"/>
</g>
</svg>
